<?xml version="1.0" standalone="no"?><!DOCTYPE svg PUBLIC "-//W3C//DTD SVG 1.1//EN" "http://www.w3.org/Graphics/SVG/1.1/DTD/svg11.dtd"><svg t="1542015299417" class="icon" style="" viewBox="0 0 1024 1024" version="1.1" xmlns="http://www.w3.org/2000/svg" p-id="4306" xmlns:xlink="http://www.w3.org/1999/xlink" width="200" height="200"><defs><style type="text/css"></style></defs><path d="M892.824299 0h-22.020985c-9.123294 0-16.515738 7.394647-16.515738 16.515738s7.392444 16.515738 16.515738 16.515739h5.505246v957.912823h-5.505246c-9.123294 0-16.515738 7.394647-16.515738 16.515739s7.392444 16.515738 16.515738 16.515738h22.020985a16.515738 16.515738 0 0 0 16.515738-16.515738V16.515738a16.515738 16.515738 0 0 0-16.515738-16.515738zM694.635439 308.293782H241.280623c-9.123294 0-16.515738 7.394647-16.515738 16.515739s7.392444 16.515738 16.515738 16.515738h453.352614c9.123294 0 16.515738-7.394647 16.515738-16.515738s-7.392444-16.515738-16.513536-16.515739zM694.635439 572.545596H241.280623c-9.123294 0-16.515738 7.394647-16.515738 16.515738s7.392444 16.515738 16.515738 16.515738h453.352614c9.123294 0 16.515738-7.394647 16.515738-16.515738s-7.392444-16.515738-16.513536-16.515738zM694.635439 660.629533H512c-9.123294 0-16.515738 7.394647-16.515738 16.515739s7.392444 16.515738 16.515738 16.515738h182.635439a16.515738 16.515738 0 0 0 0-33.031477z" fill="" p-id="4307"></path><path d="M804.740361 0H285.322592c-0.552727 0-1.103251 0.028627-1.649371 0.08368a16.581801 16.581801 0 0 0-1.200144 0.180572c-0.132126 0.024223-0.268656 0.035234-0.400782 0.061659a16.070914 16.070914 0 0 0-1.391726 0.350133c-0.055052 0.017617-0.114509 0.026425-0.169562 0.044042a16.3704 16.3704 0 0 0-1.371907 0.491068l-0.145339 0.052851a15.885938 15.885938 0 0 0-1.252994 0.592364c-0.068265 0.035234-0.140934 0.063861-0.206997 0.099094a17.566139 17.566139 0 0 0-1.109857 0.662832c-0.092488 0.059457-0.18938 0.107903-0.279667 0.169562-0.339123 0.226816-0.66063 0.475653-0.982136 0.726692-0.105701 0.08368-0.215806 0.154147-0.319304 0.240029a16.103946 16.103946 0 0 0-1.096645 0.993146l-0.101297 0.092488-154.146891 154.146892c-0.039638 0.039638-0.072669 0.085882-0.112307 0.125519a16.522345 16.522345 0 0 0-0.968923 1.07022c-0.096892 0.118913-0.180572 0.246635-0.275262 0.36775a15.88814 15.88814 0 0 0-0.689257 0.931488c-0.072669 0.107903-0.132126 0.222412-0.202593 0.332517a15.943193 15.943193 0 0 0-0.632003 1.057007c-0.044042 0.081478-0.077073 0.165157-0.118913 0.246635a17.028827 17.028827 0 0 0-0.574748 1.215559c-0.024223 0.057255-0.04184 0.118913-0.066063 0.17837-0.176168 0.44042-0.341325 0.885244-0.480057 1.34328-0.017617 0.057255-0.028627 0.116711-0.046244 0.176167a15.390466 15.390466 0 0 0-0.347932 1.387322c-0.026425 0.129924-0.037436 0.26205-0.059456 0.391974-0.070467 0.400782-0.140934 0.799362-0.180572 1.208952a16.445271 16.445271 0 0 0-0.08368 1.649372v836.797409a16.515738 16.515738 0 0 0 16.515738 16.515738h673.562458a16.515738 16.515738 0 0 0 16.515738-16.515738V16.515738a16.513536 16.513536 0 0 0-16.513536-16.515738zM268.806854 56.386933V154.146891H171.049098l97.757756-97.759958zM788.224623 990.9443H147.69144V187.178368h137.631152a16.515738 16.515738 0 0 0 16.515739-16.515739V33.031477h486.38409v957.912823z" fill="" p-id="4308"></path><path d="M351.385546 187.178368h343.247691c9.123294 0 16.515738-7.394647 16.515738-16.515739s-7.392444-16.515738-16.515738-16.515738H351.385546a16.515738 16.515738 0 0 0 0 33.031477zM694.635439 396.37772H512c-9.123294 0-16.515738 7.394647-16.515738 16.515738s7.392444 16.515738 16.515738 16.515739h182.635439a16.515738 16.515738 0 0 0 0-33.031477zM694.635439 484.461658H512c-9.123294 0-16.515738 7.394647-16.515738 16.515738s7.392444 16.515738 16.515738 16.515739h182.635439a16.515738 16.515738 0 0 0 0-33.031477zM423.916062 693.66101c9.123294 0 16.515738-7.394647 16.515739-16.515738s-7.392444-16.515738-16.515739-16.515739h-182.635439a16.515738 16.515738 0 0 0-16.515738 16.515739v176.167875a16.515738 16.515738 0 0 0 16.515738 16.515739H423.916062a16.515738 16.515738 0 0 0 16.515739-16.515739v-110.104922c0-9.121092-7.392444-16.515738-16.515739-16.515738s-16.515738 7.394647-16.515738 16.515738V836.797409h-149.603962v-143.136399H423.916062zM241.280623 517.493135H423.916062c9.123294 0 16.515738-7.394647 16.515739-16.515739s-7.392444-16.515738-16.515739-16.515738h-182.635439a16.515738 16.515738 0 0 0 0 33.031477zM584.530516 836.797409H512c-9.123294 0-16.515738 7.394647-16.515738 16.515738s7.392444 16.515738 16.515738 16.515739h72.530516a16.515738 16.515738 0 0 0 0-33.031477zM694.635439 748.713471H512c-9.123294 0-16.515738 7.394647-16.515738 16.515739s7.392444 16.515738 16.515738 16.515738h182.635439a16.515738 16.515738 0 0 0 0-33.031477zM241.280623 429.409197H423.916062c9.123294 0 16.515738-7.394647 16.515739-16.515739s-7.392444-16.515738-16.515739-16.515738h-182.635439a16.515738 16.515738 0 0 0 0 33.031477z" fill="" p-id="4309"></path></svg>