<?xml version="1.0" standalone="no"?><!DOCTYPE svg PUBLIC "-//W3C//DTD SVG 1.1//EN" "http://www.w3.org/Graphics/SVG/1.1/DTD/svg11.dtd"><svg t="1543823345655" class="icon" style="" viewBox="0 0 1024 1024" version="1.1" xmlns="http://www.w3.org/2000/svg" p-id="14328" xmlns:xlink="http://www.w3.org/1999/xlink" width="200" height="200"><defs><style type="text/css"></style></defs><path d="M48.04317 102.021385v819.95723c0 28.754272 23.330868 52.187469 52.187469 52.187469h166.590586c28.754272 0 52.187469-23.330868 52.187469-52.187469v-819.95723c0-28.754272-23.330868-52.187469-52.187469-52.187469H100.230639c-28.8566 0-52.187469 23.330868-52.187469 52.187469z m184.60038 742.187669c0 27.219346-22.0006 49.219946-49.219947 49.219946s-49.219946-22.0006-49.219946-49.219946 22.0006-49.219946 49.219946-49.219946 49.219946 22.0006 49.219947 49.219946z m0-705.758769v420.671929h-98.439893v-420.671929h98.439893zM705.093634 102.021385v819.95723c0 28.754272 23.330868 52.187469 52.187469 52.187469h166.590587c28.754272 0 52.187469-23.330868 52.187469-52.187469v-819.95723c0-28.754272-23.330868-52.187469-52.187469-52.187469H757.281103c-28.8566 0-52.187469 23.330868-52.187469 52.187469z m184.702709 742.187669c0 27.219346-22.0006 49.219946-49.219946 49.219946s-49.219946-22.0006-49.219947-49.219946 22.0006-49.219946 49.219947-49.219946 49.219946 22.0006 49.219946 49.219946z m0-705.758769v420.671929h-98.439893v-420.671929h98.439893zM356.460877 102.021385v819.95723c0 28.754272 23.330868 52.187469 52.187469 52.187469H615.044669c28.754272 0 52.187469-23.330868 52.187469-52.187469v-819.95723c0-28.754272-23.330868-52.187469-52.187469-52.187469H408.648346c-28.8566 0-52.187469 23.330868-52.187469 52.187469zM577.183172 844.209054c0 36.019586-29.265914 65.2855-65.2855 65.2855-36.019586 0-65.2855-29.265914-65.285501-65.2855 0-36.019586 29.265914-65.2855 65.285501-65.2855 36.019586 0 65.2855 29.265914 65.2855 65.2855z m0-704.121515v420.671929H446.509843v-420.671929H577.183172z" p-id="14329"></path></svg>