<?xml version="1.0" standalone="no"?><!DOCTYPE svg PUBLIC "-//W3C//DTD SVG 1.1//EN" "http://www.w3.org/Graphics/SVG/1.1/DTD/svg11.dtd"><svg t="1539332724653" class="icon" style="" viewBox="0 0 1024 1024" version="1.1" xmlns="http://www.w3.org/2000/svg" p-id="3231" xmlns:xlink="http://www.w3.org/1999/xlink" width="200" height="200"><defs><style type="text/css"></style></defs><path d="M111.204731 957.99061l0-37.289278 801.644773 0 0 37.289278L111.204731 957.99061M689.13635 902.056694l-93.215008 0-0.38988-478.959489L484.065787 342.769714 223.062332 454.633455l0 447.423239-111.857601 0 0-37.284161 74.570369 0L185.7751 435.991886l298.290687-130.506333 149.143808 111.857601 0 447.428356 55.926754 0L689.13635 902.056694zM278.211373 512.629333l131.279952-57.995879 0 74.568323-130.500193 55.932893L278.211373 512.629333 278.211373 512.629333zM409.491325 622.417809l0 74.573439-130.500193 37.280068-0.779759-70.427002L409.491325 622.417809zM278.991132 808.848848l130.500193-37.289278 0 93.212962L278.991132 864.772532 278.991132 808.848848zM726.419488 156.343791l0 745.711879 55.930847 0 0-679.710676L726.419488 156.343791zM484.065787 398.704654l0 503.352039 55.926754 0 0-466.064808L484.065787 398.704654zM912.849504 902.056694l-93.215008 0L819.634496 212.272591 726.419488 100.411921 372.20614 249.556753l0 55.9288-37.288255 37.284161L334.917886 230.912114 745.06515 63.127759l111.857601 149.145855 0 652.498918 55.926754 0L912.849504 902.056694z" p-id="3232"></path></svg>