<?xml version="1.0" standalone="no"?><!DOCTYPE svg PUBLIC "-//W3C//DTD SVG 1.1//EN" "http://www.w3.org/Graphics/SVG/1.1/DTD/svg11.dtd"><svg t="1542439603031" class="icon" style="" viewBox="0 0 1024 1024" version="1.1" xmlns="http://www.w3.org/2000/svg" p-id="2432" xmlns:xlink="http://www.w3.org/1999/xlink" width="200" height="200"><defs><style type="text/css"></style></defs><path d="M665.152 189.312c0 104.544-84.768 189.312-189.312 189.312s-189.312-84.768-189.312-189.312c0-104.544 84.768-189.312 189.312-189.312s189.312 84.768 189.312 189.312zM451.84 782.848c0-118.848 75.136-225.792 187.072-265.92 11.776-4.224 20.032-14.848 21.504-27.392 1.344-12.416-4.48-24.64-15.104-31.36-57.408-36.48-119.04-54.976-183.36-54.976-231.68 0-420.16 247.552-420.16 551.808 0 9.984 0.192 20.032 0.64 30.016 0.768 17.536 15.296 31.424 32.896 31.424l415.616 0c12.736 0 24.32-7.424 29.76-18.88 5.44-11.712 3.776-25.216-4.352-35.008-41.664-50.368-64.512-114.176-64.512-179.712zM962.816 737.152l-22.976 0c-10.496 0-21.632-8.384-24.896-18.368l-13.12-32c-4.992-9.344-3.008-22.976 4.48-30.528l16.256-16.192c7.488-7.488 7.488-19.712 0-27.136l-27.136-27.072c-7.36-7.424-19.648-7.424-27.008 0l-16.256 16.256c-7.488 7.488-21.12 9.472-30.592 4.48l-32-13.12c-9.92-3.136-18.176-14.4-18.176-24.96l0-22.912c0-10.432-8.704-19.072-19.2-19.072l-38.144 0c-10.624 0-19.136 8.704-19.136 19.072l0 22.912c0 10.56-8.256 21.824-18.24 24.96l-32.128 13.12c-9.216 5.056-22.848 3.008-30.336-4.48l-16.256-16.256c-7.488-7.424-19.712-7.424-27.2 0l-27.008 27.072c-7.424 7.424-7.424 19.648 0 27.072l16.256 16.256c7.488 7.424 9.408 21.184 4.416 30.464l-13.056 32c-3.2 9.984-14.4 18.24-24.896 18.24l-22.912 0c-10.56 0-19.136 8.64-19.136 19.136l0 38.336c0 10.496 8.64 19.072 19.136 19.072l22.912 0c10.496 0 21.696 8.32 24.768 18.304l13.184 32.064c4.992 9.28 3.072 22.976-4.416 30.528l-16.256 16.256c-7.424 7.36-7.424 19.648 0 27.008l27.008 27.136c7.488 7.36 19.712 7.36 27.2 0l16.256-16.448c7.36-7.36 21.12-9.408 30.272-4.416l32.32 13.184c9.92 3.136 18.176 14.4 18.176 24.896l0 22.848c0 10.496 8.576 19.136 19.2 19.136l38.272 0c10.496 0 19.2-8.64 19.2-19.136l0-22.848c0-10.496 8.256-21.76 18.176-24.896l32-13.184c9.344-4.992 23.104-2.944 30.592 4.416l16.256 16.256c7.36 7.488 19.648 7.488 27.008 0l27.136-27.008c7.488-7.424 7.488-19.712 0-27.136l-16.256-16.256c-7.488-7.36-9.472-21.12-4.48-30.464l13.12-32.064c3.264-9.984 14.4-18.304 24.896-18.304l22.976 0c10.496 0 19.136-8.512 19.136-19.072l0-38.4c-0.256-10.304-8.896-18.752-19.392-18.752zM733.184 870.848c-52.736 0-95.616-42.752-95.616-95.616 0-52.8 42.88-95.616 95.616-95.616 52.864 0 95.744 42.816 95.744 95.616 0 52.864-42.88 95.616-95.744 95.616z" p-id="2433"></path></svg>