<?xml version="1.0" standalone="no"?><!DOCTYPE svg PUBLIC "-//W3C//DTD SVG 1.1//EN" "http://www.w3.org/Graphics/SVG/1.1/DTD/svg11.dtd"><svg t="1534499095678" class="icon" style="" viewBox="0 0 1041 1024" version="1.1" xmlns="http://www.w3.org/2000/svg" p-id="4393" xmlns:xlink="http://www.w3.org/1999/xlink" width="130.125" height="128"><defs><style type="text/css"></style></defs><path d="M 341.519 18.4133 H 92.6068 a 92.7149 92.7149 0 0 0 -92.6068 92.6068 V 359.932 a 92.7149 92.7149 0 0 0 92.6068 92.6068 h 248.912 a 92.7149 92.7149 0 0 0 92.6068 -92.6068 V 111.02 a 92.6994 92.6994 0 0 0 -92.6068 -92.6068 Z m 30.8689 341.519 a 30.8689 30.8689 0 0 1 -30.8689 30.8689 H 92.6068 a 30.8689 30.8689 0 0 1 -30.8689 -30.8689 V 111.02 a 30.8689 30.8689 0 0 1 30.8689 -30.8689 h 248.912 a 30.8689 30.8689 0 0 1 30.8689 30.8689 Z M 341.519 589.875 H 92.6068 a 92.7149 92.7149 0 0 0 -92.6068 92.6068 v 248.912 a 92.7149 92.7149 0 0 0 92.6068 92.6068 h 248.912 a 92.6994 92.6994 0 0 0 92.6068 -92.6068 V 682.481 a 92.7149 92.7149 0 0 0 -92.6068 -92.6068 Z m 30.8689 341.519 a 30.8689 30.8689 0 0 1 -30.8689 30.8689 H 92.6068 a 30.8689 30.8689 0 0 1 -30.8689 -30.8689 V 682.481 a 30.8689 30.8689 0 0 1 30.8689 -30.8689 h 248.912 a 30.8689 30.8689 0 0 1 30.8689 30.8689 Z M 683.994 420.389 a 172.65 172.65 0 0 0 244.127 0 l 62.8492 -62.8492 a 172.866 172.866 0 0 0 0 -244.142 l -62.8492 -62.8337 a 172.619 172.619 0 0 0 -244.127 0 l -62.8492 62.8337 a 172.866 172.866 0 0 0 0 244.142 Z m -19.185 -263.328 L 727.658 94.1503 a 110.897 110.897 0 0 1 156.814 0 l 62.8492 62.8492 a 110.897 110.897 0 0 1 0 156.814 l -62.8492 62.8492 a 110.897 110.897 0 0 1 -156.814 0 l -62.8492 -62.8492 a 110.897 110.897 0 0 1 0 -156.814 Z M 930.513 589.875 H 681.602 a 92.7149 92.7149 0 0 0 -92.6068 92.6068 v 248.912 a 92.7149 92.7149 0 0 0 92.6068 92.6068 h 248.912 a 92.6994 92.6994 0 0 0 92.6068 -92.6068 V 682.481 a 92.7149 92.7149 0 0 0 -92.6068 -92.6068 Z m 30.8689 341.519 a 30.8689 30.8689 0 0 1 -30.8689 30.8689 H 681.602 a 30.8689 30.8689 0 0 1 -30.8689 -30.8689 V 682.481 a 30.8689 30.8689 0 0 1 30.8689 -30.8689 h 248.912 a 30.8689 30.8689 0 0 1 30.8689 30.8689 Z" fill="#bfbfbf" p-id="4394"></path></svg>