<?xml version="1.0" standalone="no"?><!DOCTYPE svg PUBLIC "-//W3C//DTD SVG 1.1//EN" "http://www.w3.org/Graphics/SVG/1.1/DTD/svg11.dtd"><svg t="1542439569446" class="icon" style="" viewBox="0 0 1024 1024" version="1.1" xmlns="http://www.w3.org/2000/svg" p-id="2061" xmlns:xlink="http://www.w3.org/1999/xlink" width="200" height="200"><defs><style type="text/css"></style></defs><path d="M938.9056 774.638933l-163.037867-81.5104A44.885333 44.885333 0 0 1 750.933333 652.765867v-57.7024c3.908267-4.778667 8.021333-10.222933 12.270934-16.2304a390.587733 390.587733 0 0 0 50.414933-98.9696A67.720533 67.720533 0 0 0 853.333333 418.133333v-68.266666c0-16.4352-6.144-32.3584-17.066666-44.8v-90.7776c0.955733-9.386667 4.7104-65.262933-35.703467-111.36C765.508267 62.941867 708.625067 42.666667 631.466667 42.666667s-134.0416 20.2752-169.096534 60.245333c-24.490667 27.938133-32.733867 59.409067-35.2256 82.005333C397.892267 169.796267 363.4176 162.133333 324.266667 162.133333c-177.3056 0-187.630933 151.125333-187.733334 153.6v78.148267c-11.0592 12.049067-17.066667 25.9584-17.066666 39.765333v58.948267c0 18.414933 8.2432 35.584 22.3744 47.189333 14.08 53.077333 48.708267 93.184 62.190933 107.264v46.813867c0 13.431467-7.304533 25.7536-19.985067 32.682667l-113.544533 71.2192A135.236267 135.236267 0 0 0 0 916.5312V981.333333h1024v-69.000533a153.1392 153.1392 0 0 0-85.0944-137.693867zM238.933333 909.0048V947.2H34.133333v-30.6688c0-37.034667 20.206933-71.0656 53.6064-89.309867l113.527467-71.2192a70.7072 70.7072 0 0 0 36.881067-62.139733v-61.2864l-5.4272-5.0688c-0.443733-0.4096-45.789867-43.246933-59.1872-101.632l-1.553067-6.7584-5.8368-3.754667A27.136 27.136 0 0 1 153.6 492.5952v-58.948267c0-6.144 4.181333-13.448533 11.451733-20.036266l5.614934-5.0688-0.034134-91.818667c0.3072-4.898133 9.198933-120.456533 153.634134-120.456533 40.840533 0 75.229867 9.437867 102.4 28.0576v80.7424c-10.922667 12.4416-17.066667 28.3648-17.066667 44.8v68.266666c0 5.188267 0.597333 10.2912 1.723733 15.240534 0.4608 1.979733 1.3824 3.7888 2.013867 5.700266 0.938667 2.8672 1.6896 5.819733 3.003733 8.533334l0.0512 0.085333c4.369067 9.0112 10.734933 17.066667 18.756267 23.5008l0.273067 0.9216c1.024 3.908267 2.0992 7.799467 3.259733 11.605333l1.3824 4.4544c0.238933 0.785067 0.529067 1.5872 0.785067 2.372267 0.597333 1.8432 1.1776 3.669333 1.792 5.4784 1.024 2.986667 2.0992 6.075733 3.345066 9.437867 0.529067 1.399467 1.109333 2.6624 1.655467 4.0448 1.399467 3.566933 2.798933 7.0144 4.266667 10.427733 0.3584 0.8192 0.6656 1.706667 1.024 2.5088l0.955733 2.1504c0.443733 0.989867 0.904533 1.877333 1.348267 2.850133 1.672533 3.652267 3.310933 7.185067 5.0176 10.5984l0.802133 1.6896c1.0752 2.133333 2.1504 4.1472 3.2256 6.1952a372.206933 372.206933 0 0 0 15.1552 26.2656l1.450667 2.304c4.130133 6.4 7.714133 11.588267 10.683733 15.633067l2.133333 2.901333 1.211734 1.655467v56.4736c0 16.520533-9.0112 31.675733-23.5008 39.594667l-45.1584 24.6272-7.867734-0.699734-3.208533 6.741334-96.017067 52.3776A153.9584 153.9584 0 0 0 238.933333 909.0048zM989.866667 947.2H273.066667v-38.1952a119.739733 119.739733 0 0 1 62.446933-105.198933l152.251733-83.0464A79.2576 79.2576 0 0 0 529.066667 651.178667v-68.590934l-3.310934-3.959466-0.648533-0.768c-0.034133-0.0512-1.092267-1.3312-2.816-3.584a162.2016 162.2016 0 0 1-3.498667-4.693334l-0.0512-0.085333a310.050133 310.050133 0 0 1-9.284266-13.653333l-0.238934-0.375467c-1.672533-2.6112-3.447467-5.461333-5.256533-8.482133l-0.4096-0.682667a349.320533 349.320533 0 0 1-12.032-21.896533l-0.017067-0.034134a345.378133 345.378133 0 0 1-6.4512-13.687466l-0.887466-1.979734c-0.938667-2.133333-1.877333-4.369067-2.833067-6.673066l-1.024-2.56c-0.887467-2.235733-1.792-4.488533-2.747733-7.0656a281.770667 281.770667 0 0 1-4.949334-14.4896l-0.938666-3.037867-0.324267-1.041067a267.093333 267.093333 0 0 1-4.437333-16.571733l-1.553067-6.7584-5.819733-3.754667A34.030933 34.030933 0 0 1 443.733333 418.133333v-68.266666c0-9.5744 4.061867-18.500267 11.434667-25.173334l5.632-5.0688v-112.3328l-0.4608-0.3584c-0.580267-12.322133 0.1536-50.090667 27.6992-81.5104C516.317867 93.149867 564.5824 76.8 631.466667 76.8c66.645333 0 114.807467 16.2304 143.121066 48.264533 33.2288 37.563733 27.733333 85.623467 27.6992 86.033067L802.133333 319.624533l5.632 5.085867c7.3728 6.656 11.434667 15.581867 11.434667 25.156267v68.266666c0 14.8992-9.762133 27.938133-24.2688 32.4096l-8.4992 2.6112-2.730667 8.448a357.2736 357.2736 0 0 1-48.366933 97.501867c-5.0688 7.185067-10.001067 13.550933-14.2848 18.414933l-4.2496 4.846934v70.4c0 30.208 16.776533 57.361067 43.793067 70.877866l163.037866 81.5104A119.159467 119.159467 0 0 1 989.866667 912.3328V947.2z" fill="" p-id="2062"></path></svg>